<?xml version="1.0" encoding="UTF-8"?>
<svg id="visual" version="1.1" viewBox="0 0 960 540" xmlns="http://www.w3.org/2000/svg">
  <g stroke-width="1.0328">
    <path
      d="m0 160 22.932 5.3c22.932 5.4 68.795 16 114.45 30.5 45.757 14.5 91.194 32.9 136.95 42.5 45.65 9.7 91.514 10.7 137.16-8.3 45.757-19 91.194-58 136.95-55.8 45.65 2.1 91.514 45.5 137.16 54.1 45.757 8.7 91.194-17.3 136.95-20.8 45.65-3.5 91.514 15.5 114.45 25l22.932 9.5v298h-22.932-114.45-136.95-137.16-136.95-137.16-136.95-114.45-22.932z"
      fill="#16283e" />
    <path
      d="m0 240 22.932 4.7c22.932 4.6 68.795 14 114.45 24.5 45.757 10.5 91.194 22.1 136.95 19.1 45.65-3 91.514-20.6 137.16-16.5 45.757 4.2 91.194 30.2 136.95 41 45.65 10.9 91.514 6.5 137.16-5.1 45.757-11.7 91.194-30.7 136.95-45.9 45.65-15.1 91.514-26.5 114.45-32.1l22.932-5.7v316h-22.932-114.45-136.95-137.16-136.95-137.16-136.95-114.45-22.932z"
      fill="#20446a" />
    <path
      d="m0 388 22.932-10.8c22.932-10.9 68.795-32.5 114.45-28.7 45.757 3.8 91.194 33.2 136.95 35.5 45.65 2.3 91.514-22.3 137.16-31 45.757-8.7 91.194-1.3 136.95-5.2 45.65-3.8 91.514-18.8 137.16-14.3 45.757 4.5 91.194 28.5 136.95 30.7 45.65 2.1 91.514-17.5 114.45-27.4l22.932-9.8v213h-22.932-114.45-136.95-137.16-136.95-137.16-136.95-114.45-22.932z"
      fill="#29629b" />
    <path
      d="m0 471 22.932-10.7c22.932-10.6 68.795-32 114.45-39 45.757-7 91.194 0.4 136.95 13 45.65 12.7 91.514 30.7 137.16 26 45.757-4.6 91.194-32 136.95-33.6 45.65-1.7 91.514 22.3 137.16 24.6 45.757 2.4 91.194-17 136.95-29 45.65-12 91.514-16.6 114.45-19l22.932-2.3v139h-22.932-114.45-136.95-137.16-136.95-137.16-136.95-114.45-22.932z"
      fill="#3182ce" />
  </g>
</svg>