<?xml version="1.0" encoding="UTF-8"?>
<svg width="512" height="512" enable-background="new 0 0 520 520" version="1.1" viewBox="0 0 520 520" xmlns="http://www.w3.org/2000/svg">
 <g id="_x31_10-Bleeding_Heart_x2C__Crazy_Love_x2C__Emotions">
  <path d="m65 357.5c-8.271 0-15 6.729-15 15s6.729 15 15 15 15-6.729 15-15-6.729-15-15-15z"/>
  <path d="m410 362.5v-63.619c0-1.157.401-2.278 1.135-3.172 27.445-33.438 40.229-64.913 40.229-99.054 0-50.001-40.679-90.68-90.68-90.68-47.431 0-69.359 25.298-91.209 68.996-.847 1.694-2.578 2.764-4.472 2.764s-3.625-1.07-4.473-2.764c-21.849-43.698-43.777-68.996-91.208-68.996-50.063 0-90.791 40.679-90.791 90.68 0 37.965 15.477 72.057 50.182 110.542.828.919 1.287 2.111 1.287 3.349v101.954c0 8.271 6.729 15 15 15s15-6.729 15-15v-62.179c0-1.985 1.175-3.783 2.994-4.58 1.819-.795 3.936-.441 5.396.905 9.881 9.117 20.139 18.288 30.998 27.997 2.958 2.646 5.942 5.313 8.948 8.007 1.058.948 1.663 2.303 1.663 3.724v46.126c0 8.271 6.729 15 15 15s15-6.729 15-15v-9.454c0-1.998 1.19-3.805 3.026-4.594 1.835-.79 3.965-.408 5.415.966 5.877 5.575 11.33 10.852 16.562 16.029 8.179-8.094 16.918-16.457 26.593-25.449.943-.877 2.166-1.338 3.405-1.338.675 0 1.354.137 1.996.416 1.824.795 3.003 2.595 3.003 4.584v38.84c0 8.271 6.729 15 15 15s15-6.729 15-15v-75.084c0-1.423.606-2.778 1.667-3.727 13.338-11.93 27.13-24.266 39.893-36.368 1.45-1.375 3.581-1.754 5.415-.966 1.836.789 3.025 2.596 3.025 4.594v21.551c0 8.271 6.729 15 15 15 8.272 0 15.001-6.729 15.001-15zm-287.929-112.929c-3.905 3.905-10.237 3.905-14.143 0-3.905-3.905-3.905-10.237 0-14.143 3.905-3.905 10.237-3.905 14.143 0 3.905 3.906 3.905 10.238 0 14.143zm62.929-112.071c-39.024 0-70.773 31.709-70.773 70.686 0 2.761-2.239 5-5 5s-5-2.239-5-5c0-44.49 36.235-80.686 80.773-80.686 2.761 0 5 2.239 5 5s-2.239 5-5 5zm237.071 112.071c-3.905 3.905-10.237 3.905-14.143 0s-3.905-10.237 0-14.143c3.905-3.905 10.237-3.905 14.143 0 3.906 3.906 3.906 10.238 0 14.143zm-77.071-112.071c-2.762 0-5-2.239-5-5s2.238-5 5-5c44.49 0 80.686 36.196 80.686 80.686 0 2.761-2.238 5-5 5s-5-2.239-5-5c0-38.977-31.709-70.686-70.686-70.686z"/>
  <path d="m460 87.5c5.514 0 10-4.486 10-10s-4.486-10-10-10-10 4.486-10 10 4.486 10 10 10z"/>
  <path d="m66.52 121c0-5.514-4.486-10-10-10s-10 4.486-10 10 4.486 10 10 10 10-4.486 10-10z"/>
  <path d="m403 436.48c-5.514 0-10 4.485-10 10 0 5.514 4.486 10 10 10s10-4.486 10-10-4.486-10-10-10z"/>
  <path d="m459.48 354.48c-8.271 0-15 6.729-15 15s6.729 15 15 15 15-6.729 15-15c0-8.27-6.728-15-15-15z"/>
  <path d="m270.49 110c8.271 0 15-6.729 15-15s-6.729-15-15-15-15 6.729-15 15 6.729 15 15 15z"/>
 </g>
</svg>
