<?xml version="1.0" encoding="UTF-8"?>
<svg id="visual" version="1.1" viewBox="0 0 900 600" xmlns="http://www.w3.org/2000/svg">
 <path d="m0 131 21.5 5.3c21.5 5.4 64.5 16 107.3 30.5 42.9 14.5 85.5 32.9 128.4 42.5 42.8 9.7 85.8 10.7 128.6-8.3 42.9-19 85.5-58 128.4-55.8 42.8 2.1 85.8 45.5 128.6 54.1 42.9 8.7 85.5-17.3 128.4-20.8 42.8-3.5 85.8 15.5 107.3 25l21.5 9.5v298h-21.5-107.3-128.4-128.6-128.4-128.6-128.4-107.3-21.5z" fill="#16283e"/>
 <path d="m0 211 21.5 4.7c21.5 4.6 64.5 14 107.3 24.5 42.9 10.5 85.5 22.1 128.4 19.1 42.8-3 85.8-20.6 128.6-16.5 42.9 4.2 85.5 30.2 128.4 41 42.8 10.9 85.8 6.5 128.6-5.1 42.9-11.7 85.5-30.7 128.4-45.9 42.8-15.1 85.8-26.5 107.3-32.1l21.5-5.7v316h-21.5-107.3-128.4-128.6-128.4-128.6-128.4-107.3-21.5z" fill="#20446a"/>
 <path d="m0 359 21.5-10.8c21.5-10.9 64.5-32.5 107.3-28.7 42.9 3.8 85.5 33.2 128.4 35.5 42.8 2.3 85.8-22.3 128.6-31 42.9-8.7 85.5-1.3 128.4-5.2 42.8-3.8 85.8-18.8 128.6-14.3 42.9 4.5 85.5 28.5 128.4 30.7 42.8 2.1 85.8-17.5 107.3-27.4l21.5-9.8v213h-21.5-107.3-128.4-128.6-128.4-128.6-128.4-107.3-21.5z" fill="#29629b"/>
 <path d="m0 487.92 21.5-17.381c21.5-17.218 64.5-51.98 107.3-63.351 42.9-11.371 85.5 0.64974 128.4 21.117 42.8 20.63 85.8 49.868 128.6 42.234 42.9-7.4721 85.5-51.98 128.4-54.579 42.8-2.7614 85.8 36.224 128.6 39.96 42.9 3.8985 85.5-27.614 128.4-47.107 42.8-19.492 85.8-26.965 107.3-30.863l21.5-3.7361v225.79h-21.5-107.3-128.4-128.6-128.4-128.6-128.4-107.3-21.5z" fill="#3182ce" stroke-width="1.2745"/>
</svg>
