<svg id="visual" viewBox="0 0 900 600" width="900" height="600" xmlns="http://www.w3.org/2000/svg"
  xmlns:xlink="http://www.w3.org/1999/xlink" version="1.1">
  <path
    d="M0 221L21.5 226.3C43 231.7 86 242.3 128.8 256.8C171.7 271.3 214.3 289.7 257.2 299.3C300 309 343 310 385.8 291C428.7 272 471.3 233 514.2 235.2C557 237.3 600 280.7 642.8 289.3C685.7 298 728.3 272 771.2 268.5C814 265 857 284 878.5 293.5L900 303L900 601L878.5 601C857 601 814 601 771.2 601C728.3 601 685.7 601 642.8 601C600 601 557 601 514.2 601C471.3 601 428.7 601 385.8 601C343 601 300 601 257.2 601C214.3 601 171.7 601 128.8 601C86 601 43 601 21.5 601L0 601Z"
    fill="#98C1DA"></path>
  <path
    d="M0 301L21.5 305.7C43 310.3 86 319.7 128.8 330.2C171.7 340.7 214.3 352.3 257.2 349.3C300 346.3 343 328.7 385.8 332.8C428.7 337 471.3 363 514.2 373.8C557 384.7 600 380.3 642.8 368.7C685.7 357 728.3 338 771.2 322.8C814 307.7 857 296.3 878.5 290.7L900 285L900 601L878.5 601C857 601 814 601 771.2 601C728.3 601 685.7 601 642.8 601C600 601 557 601 514.2 601C471.3 601 428.7 601 385.8 601C343 601 300 601 257.2 601C214.3 601 171.7 601 128.8 601C86 601 43 601 21.5 601L0 601Z"
    fill="#7DB3D9"></path>
  <path
    d="M0 449L21.5 438.2C43 427.3 86 405.7 128.8 409.5C171.7 413.3 214.3 442.7 257.2 445C300 447.3 343 422.7 385.8 414C428.7 405.3 471.3 412.7 514.2 408.8C557 405 600 390 642.8 394.5C685.7 399 728.3 423 771.2 425.2C814 427.3 857 407.7 878.5 397.8L900 388L900 601L878.5 601C857 601 814 601 771.2 601C728.3 601 685.7 601 642.8 601C600 601 557 601 514.2 601C471.3 601 428.7 601 385.8 601C343 601 300 601 257.2 601C214.3 601 171.7 601 128.8 601C86 601 43 601 21.5 601L0 601Z"
    fill="#66A4D6"></path>
  <path
    d="M0 532L21.5 521.3C43 510.7 86 489.3 128.8 482.3C171.7 475.3 214.3 482.7 257.2 495.3C300 508 343 526 385.8 521.3C428.7 516.7 471.3 489.3 514.2 487.7C557 486 600 510 642.8 512.3C685.7 514.7 728.3 495.3 771.2 483.3C814 471.3 857 466.7 878.5 464.3L900 462L900 601L878.5 601C857 601 814 601 771.2 601C728.3 601 685.7 601 642.8 601C600 601 557 601 514.2 601C471.3 601 428.7 601 385.8 601C343 601 300 601 257.2 601C214.3 601 171.7 601 128.8 601C86 601 43 601 21.5 601L0 601Z"
    fill="#5095D5"></path>
</svg>