<?xml version="1.0" encoding="UTF-8"?>
<svg id="visual" version="1.1" viewBox="0 0 960 540" xmlns="http://www.w3.org/2000/svg">
 <g transform="matrix(-1.0001,0,0,-1,960,530)">
  <path d="m0 198 22.931 4.1842c22.931 4.2631 68.793 12.632 114.45 24.079 45.756 11.447 91.191 25.973 136.95 33.553 45.649 7.6579 91.511 8.4474 137.16-6.5526 45.756-15 91.191-45.789 136.95-44.053 45.649 1.6579 91.511 35.921 137.16 42.71 45.756 6.8684 91.191-13.658 136.95-16.422 45.649-2.7632 91.511 12.237 114.45 19.737l22.931 7.5v235.26h-959.9z" fill="#8ab6e0" stroke-width=".91795"/>
  <path d="m0 307.61 22.931 3.7034c22.931 3.6245 68.793 11.031 114.45 19.305 45.756 8.2735 91.191 17.414 136.95 15.05 45.649-2.3638 91.511-16.232 137.16-13.001 45.756 3.3093 91.191 23.796 136.95 32.306 45.649 8.5886 91.511 5.1217 137.16-4.0186 45.756-9.219 91.191-24.191 136.95-36.167 45.649-11.898 91.511-20.881 114.45-25.293l22.931-4.4913v235h-959.9z" fill="#7daad9" stroke-width=".91676"/>
  <path d="m0 424.8 22.931-8.4632c22.931-8.5415 68.793-25.468 114.45-22.49 45.756 2.9777 91.191 26.016 136.95 27.818 45.649 1.8023 91.511-17.474 137.16-24.292 45.756-6.8175 91.191-1.0187 136.95-4.0748 45.649-2.9777 91.511-14.733 137.16-11.205 45.756 3.5263 91.191 22.333 136.95 24.058 45.649 1.6456 91.511-13.714 114.45-21.472l22.931-7.6795v153h-959.9z" fill="#66a4d6" stroke-width=".91424"/>
  <path d="m0 489.85 22.931-8.3838c22.931-8.3055 68.793-25.074 114.45-30.558 45.756-5.4848 91.191 0.31341 136.95 10.186 45.649 9.9512 91.511 24.055 137.16 20.372 45.756-3.6042 91.191-25.074 136.95-26.327 45.649-1.332 91.511 17.473 137.16 19.275 45.756 1.8805 91.191-13.32 136.95-22.722 45.649-9.4024 91.511-13.007 114.45-14.887l22.931-1.8021v95h-959.9z" fill="#5095d5" stroke-width=".91419"/>
 </g>
</svg>
