<svg enable-background="new 0 0 520 520" height="512" viewBox="0 0 520 520" width="512"
  xmlns="http://www.w3.org/2000/svg">
  <g id="_x31_10-Bleeding_Heart_x2C__Crazy_Love_x2C__Emotions">
    <g>
      <path
        d="m340 140c-5.522 0-10 4.477-10 10s4.478 10 10 10c36.219 0 65.686 29.467 65.686 65.686 0 5.523 4.478 10 10 10s10-4.477 10-10c0-47.248-38.439-85.686-85.686-85.686z" />
      <path
        d="m180 140c-47.295 0-85.773 38.438-85.773 85.686 0 5.523 4.477 10 10 10s10-4.477 10-10c0-36.219 29.505-65.686 65.773-65.686 5.523 0 10-4.477 10-10s-4.477-10-10-10z" />
      <circle cx="290" cy="80" r="10" />
      <circle cx="410" cy="260" r="10" />
      <circle cx="110" cy="260" r="10" />
      <circle cx="470" cy="360" r="10" />
      <circle cx="410" cy="440" r="10" />
      <circle cx="70" cy="460" r="10" />
      <circle cx="40" cy="310" r="10" />
      <circle cx="120" cy="70" r="10" />
      <path
        d="m455 120c13.785 0 25-11.215 25-25s-11.215-25-25-25-25 11.215-25 25 11.215 25 25 25zm0-30c2.757 0 5 2.243 5 5s-2.243 5-5 5-5-2.243-5-5 2.243-5 5-5z" />
      <path
        d="m60 120c16.542 0 30-13.458 30-30s-13.458-30-30-30-30 13.458-30 30 13.458 30 30 30zm0-40c5.514 0 10 4.486 10 10s-4.486 10-10 10-10-4.486-10-10 4.486-10 10-10z" />
      <path
        d="m420 380v-60.076c28.205-35.249 41.363-68.94 41.363-105.769 0-58.272-47.408-105.68-105.68-105.68-48.186 0-73.973 22.743-95.681 60.524-21.708-37.781-47.495-60.524-95.68-60.524-58.333 0-105.791 47.408-105.791 105.68 0 40.976 15.901 77.411 51.468 117.704v98.141c0 16.542 13.458 30 30 30s30-13.458 30-30v-39.566c6.153 5.536 12.222 10.949 20 17.909v41.657c0 16.542 13.458 30 30 30 12.365 0 23.007-7.52 27.593-18.226 1.806 1.778 3.583 3.54 5.339 5.297 3.904 3.903 10.236 3.904 14.143 0 4.15-4.151 8.441-8.363 12.926-12.688v15.617c0 16.542 13.458 30 30 30s30-13.458 30-30v-70.612c6.65-5.95 13.383-11.988 20.029-18.047.704 15.923 13.878 28.659 29.971 28.659 16.542 0 30-13.458 30-30zm-20-63.619v63.619c0 5.514-4.486 10-10 10s-10-4.486-10-10v-21.551c0-3.996-2.379-7.609-6.051-9.188-3.672-1.577-7.931-.817-10.83 1.932-12.709 12.052-26.474 24.363-39.786 36.269-2.12 1.897-3.333 4.608-3.333 7.454v75.084c0 5.514-4.486 10-10 10s-10-4.486-10-10v-38.84c0-3.979-2.358-7.578-6.005-9.167-3.653-1.594-7.896-.859-10.803 1.842-8.342 7.754-15.992 15.042-23.189 22.096-4.18-4.096-8.521-8.277-13.121-12.641-2.9-2.749-7.159-3.511-10.831-1.932-3.672 1.578-6.051 5.19-6.051 9.188v9.454c0 5.514-4.486 10-10 10s-10-4.486-10-10v-46.126c0-2.843-1.209-5.551-3.327-7.447-13.972-12.522-27.218-24.261-39.893-35.955-2.919-2.693-7.156-3.402-10.792-1.811-3.638 1.594-5.988 5.188-5.988 9.16v62.179c0 5.514-4.486 10-10 10s-10-4.486-10-10v-101.954c0-2.474-.917-4.859-2.574-6.697-33.815-37.498-48.895-70.558-48.895-107.194 0-47.244 38.486-85.68 85.791-85.68 40.089 0 61.976 16.713 86.736 66.232 3.677 7.354 14.206 7.363 17.889 0 24.76-49.52 46.646-66.232 86.736-66.232 47.244 0 85.68 38.436 85.68 85.68 0 33.371-12.057 62.942-39.093 95.881-1.467 1.789-2.27 4.031-2.27 6.345z" />
      <path
        d="m60 360c-16.542 0-30 13.458-30 30s13.458 30 30 30 30-13.458 30-30-13.458-30-30-30zm0 40c-5.514 0-10-4.486-10-10s4.486-10 10-10 10 4.486 10 10-4.486 10-10 10z" />
    </g>
  </g>
</svg>