<?xml version="1.0" encoding="UTF-8"?>
<svg width="512" height="512" enable-background="new 0 0 520 520" version="1.1" viewBox="0 0 520 520" xmlns="http://www.w3.org/2000/svg">
 <g id="_x31_10-Bleeding_Heart_x2C__Crazy_Love_x2C__Emotions">
  <path d="m180 140c-47.295 0-85.773 38.438-85.773 85.686 0 5.523 4.477 10 10 10s10-4.477 10-10c0-36.219 29.505-65.686 65.773-65.686 5.523 0 10-4.477 10-10s-4.477-10-10-10z"/>
  <circle cx="290" cy="80" r="10"/>
  <circle cx="410" cy="260" r="10"/>
  <circle cx="110" cy="260" r="10"/>
  <circle cx="470" cy="360" r="10"/>
  <circle cx="410" cy="440" r="10"/>
  <circle cx="70" cy="460" r="10"/>
  <circle cx="40" cy="310" r="10"/>
  <circle cx="120" cy="70" r="10"/>
  <path d="m455 120c13.785 0 25-11.215 25-25s-11.215-25-25-25-25 11.215-25 25 11.215 25 25 25zm0-30c2.757 0 5 2.243 5 5s-2.243 5-5 5-5-2.243-5-5 2.243-5 5-5z"/>
  <path d="m60 120c16.542 0 30-13.458 30-30s-13.458-30-30-30-30 13.458-30 30 13.458 30 30 30zm0-40c5.514 0 10 4.486 10 10s-4.486 10-10 10-10-4.486-10-10 4.486-10 10-10z"/>
  <path d="m420 380v-60.076c28.205-35.249 41.363-68.94 41.363-105.77 0-58.272-47.408-105.68-105.68-105.68-48.186 0-73.973 22.743-95.681 60.524-21.708-37.781-47.495-60.524-95.68-60.524-58.333 0-105.79 47.408-105.79 105.68 0 40.976 15.901 77.411 51.468 117.7v98.141c0 16.542 13.458 30 30 30s30-13.458 30-30c-19.8-31.898 18.678-48.376 20-21.657v41.657c0 16.542 13.458 30 30 30 12.365 0 23.007-7.52 27.593-18.226 1.806 1.778 3.583 3.54 5.339 5.297 3.904 3.903 10.236 3.904 14.143 0 4.15-4.151 8.441-8.363 12.926-12.688v15.617c0 16.542 13.458 30 30 30s30-13.458 30-30v-70.612c25.88-32.713 23.246 9.818 50 10.612 16.542 0 30-13.458 30-30z" fill="none" stroke="#000" stroke-linecap="round" stroke-linejoin="round" stroke-width="8.125"/>
  <path d="m60 360c-16.542 0-30 13.458-30 30s13.458 30 30 30 30-13.458 30-30-13.458-30-30-30zm0 40c-5.514 0-10-4.486-10-10s4.486-10 10-10 10 4.486 10 10-4.486 10-10 10z"/>
  <path d="m340 140c37.165-0.79039 85.576 31.468 85.686 85.686" fill="none" stroke="#000" stroke-linecap="round" stroke-width="19.297"/>
 </g>
</svg>
