<?xml version="1.0" encoding="UTF-8"?>
<!-- Created with Inkscape (http://www.inkscape.org/) -->
<svg width="682.67" height="682.67" version="1.1" viewBox="0 0 682.67 682.67" xml:space="preserve"
  xmlns="http://www.w3.org/2000/svg">
  <defs>
    <clipPath id="clipPath3443">
      <path d="m0 512h512v-512h-512z" />
    </clipPath>
  </defs>
  <g transform="matrix(1.3333 0 0 -1.3333 0 682.67)">
    <g clip-path="url(#clipPath3443)">
      <g transform="translate(370,98)">
        <path
          d="m0 0h-228c-24.301 0-44 19.699-44 44v228c0 24.301 19.699 44 44 44h228c24.301 0 44-19.699 44-44v-228c0-24.301-19.699-44-44-44z"
          fill="none" stroke="#000" stroke-linecap="round" stroke-linejoin="round" stroke-miterlimit="10"
          stroke-width="20" />
      </g>
      <g transform="translate(301.13 366)">
        <path d="m0 0h64.873v-220h-220v220h65.127" fill="none" stroke="#000" stroke-linecap="round"
          stroke-linejoin="round" stroke-miterlimit="10" stroke-width="20" />
      </g>
      <path d="m234 278h-44v44h44z" fill="none" stroke="#000" stroke-linecap="round" stroke-linejoin="round"
        stroke-miterlimit="10" stroke-width="20" />
      <g transform="translate(278,322)">
        <path d="m0 0h44" fill="none" stroke="#000" stroke-linecap="round" stroke-linejoin="round"
          stroke-miterlimit="10" stroke-width="20" />
      </g>
      <g transform="translate(278,278)">
        <path d="m0 0h44" fill="none" stroke="#000" stroke-linecap="round" stroke-linejoin="round"
          stroke-miterlimit="10" stroke-width="20" />
      </g>
      <g transform="translate(322,234)">
        <path d="m0 0v-44h-44" fill="none" stroke="#000" stroke-linecap="round" stroke-linejoin="round"
          stroke-miterlimit="10" stroke-width="20" />
      </g>
      <g transform="translate(278,234)">
        <path d="m0 0v0" fill="none" stroke="#000" stroke-linecap="round" stroke-linejoin="round" stroke-miterlimit="10"
          stroke-width="20" />
      </g>
      <g transform="translate(234,190)">
        <path d="m0 0h-44" fill="none" stroke="#000" stroke-linecap="round" stroke-linejoin="round"
          stroke-miterlimit="10" stroke-width="20" />
      </g>
      <g transform="translate(234,234)">
        <path d="m0 0h-44" fill="none" stroke="#000" stroke-linecap="round" stroke-linejoin="round"
          stroke-miterlimit="10" stroke-width="20" />
      </g>
      <g transform="translate(144,414)">
        <path d="m0 0v88" fill="none" stroke="#000" stroke-linecap="round" stroke-linejoin="round"
          stroke-miterlimit="10" stroke-width="20" />
      </g>
      <g transform="translate(200,414)">
        <path d="m0 0v48" fill="none" stroke="#000" stroke-linecap="round" stroke-linejoin="round"
          stroke-miterlimit="10" stroke-width="20" />
      </g>
      <g transform="translate(256,414)">
        <path d="m0 0v88" fill="none" stroke="#000" stroke-linecap="round" stroke-linejoin="round"
          stroke-miterlimit="10" stroke-width="20" />
      </g>
      <g transform="translate(368,414)">
        <path d="m0 0v88" fill="none" stroke="#000" stroke-linecap="round" stroke-linejoin="round"
          stroke-miterlimit="10" stroke-width="20" />
      </g>
      <g transform="translate(312,414)">
        <path d="m0 0v48" fill="none" stroke="#000" stroke-linecap="round" stroke-linejoin="round"
          stroke-miterlimit="10" stroke-width="20" />
      </g>
      <g transform="translate(144,98)">
        <path d="m0 0v-88" fill="none" stroke="#000" stroke-linecap="round" stroke-linejoin="round"
          stroke-miterlimit="10" stroke-width="20" />
      </g>
      <g transform="translate(200,98)">
        <path d="m0 0v-48" fill="none" stroke="#000" stroke-linecap="round" stroke-linejoin="round"
          stroke-miterlimit="10" stroke-width="20" />
      </g>
      <g transform="translate(256,98)">
        <path d="m0 0v-88" fill="none" stroke="#000" stroke-linecap="round" stroke-linejoin="round"
          stroke-miterlimit="10" stroke-width="20" />
      </g>
      <g transform="translate(368,98)">
        <path d="m0 0v-88" fill="none" stroke="#000" stroke-linecap="round" stroke-linejoin="round"
          stroke-miterlimit="10" stroke-width="20" />
      </g>
      <g transform="translate(312,98)">
        <path d="m0 0v-48" fill="none" stroke="#000" stroke-linecap="round" stroke-linejoin="round"
          stroke-miterlimit="10" stroke-width="20" />
      </g>
      <g transform="translate(414,368)">
        <path d="m0 0h88" fill="none" stroke="#000" stroke-linecap="round" stroke-linejoin="round"
          stroke-miterlimit="10" stroke-width="20" />
      </g>
      <g transform="translate(414,312)">
        <path d="m0 0h48" fill="none" stroke="#000" stroke-linecap="round" stroke-linejoin="round"
          stroke-miterlimit="10" stroke-width="20" />
      </g>
      <g transform="translate(414,256)">
        <path d="m0 0h88" fill="none" stroke="#000" stroke-linecap="round" stroke-linejoin="round"
          stroke-miterlimit="10" stroke-width="20" />
      </g>
      <g transform="translate(414,144)">
        <path d="m0 0h88" fill="none" stroke="#000" stroke-linecap="round" stroke-linejoin="round"
          stroke-miterlimit="10" stroke-width="20" />
      </g>
      <g transform="translate(414,200)">
        <path d="m0 0h48" fill="none" stroke="#000" stroke-linecap="round" stroke-linejoin="round"
          stroke-miterlimit="10" stroke-width="20" />
      </g>
      <g transform="translate(98,368)">
        <path d="m0 0h-88" fill="none" stroke="#000" stroke-linecap="round" stroke-linejoin="round"
          stroke-miterlimit="10" stroke-width="20" />
      </g>
      <g transform="translate(98,312)">
        <path d="m0 0h-48" fill="none" stroke="#000" stroke-linecap="round" stroke-linejoin="round"
          stroke-miterlimit="10" stroke-width="20" />
      </g>
      <g transform="translate(98,256)">
        <path d="m0 0h-88" fill="none" stroke="#000" stroke-linecap="round" stroke-linejoin="round"
          stroke-miterlimit="10" stroke-width="20" />
      </g>
      <g transform="translate(98,144)">
        <path d="m0 0h-88" fill="none" stroke="#000" stroke-linecap="round" stroke-linejoin="round"
          stroke-miterlimit="10" stroke-width="20" />
      </g>
      <g transform="translate(98,200)">
        <path d="m0 0h-48" fill="none" stroke="#000" stroke-linecap="round" stroke-linejoin="round"
          stroke-miterlimit="10" stroke-width="20" />
      </g>
      <g transform="translate(256.13 366)">
        <path d="m0 0v0" fill="none" stroke="#000" stroke-linecap="round" stroke-linejoin="round" stroke-miterlimit="10"
          stroke-width="20" />
      </g>
    </g>
  </g>
</svg>