<svg id="Capa_1" enable-background="new 0 0 511.731 511.731" height="512" viewBox="0 0 511.731 511.731" width="512"
  xmlns="http://www.w3.org/2000/svg">
  <g>
    <path
      d="m180.073 458.148c-11.821-5.569-18.208-15.8-21.485-23.401-1.696-3.934-5.555-6.477-9.831-6.477 0 0 0 0-.001 0-4.276 0-8.135 2.542-9.832 6.475-3.277 7.602-9.665 17.833-21.486 23.402-3.784 1.783-6.134 5.49-6.134 9.675 0 4.186 2.351 7.893 6.134 9.676 11.821 5.569 18.208 15.8 21.486 23.401 1.696 3.935 5.556 6.477 9.833 6.476s8.136-2.543 9.831-6.476c3.277-7.602 9.665-17.832 21.485-23.401 3.784-1.783 6.135-5.49 6.135-9.676 0-4.184-2.351-7.891-6.135-9.674zm-31.317 29.029c-3.941-6.698-9.701-13.834-18.012-19.354 8.312-5.52 14.07-12.655 18.012-19.354 3.942 6.699 9.7 13.833 18.012 19.354-8.311 5.52-14.07 12.656-18.012 19.354z" />
    <path
      d="m442.962 53.583c11.82 5.569 18.208 15.8 21.485 23.402 1.696 3.934 5.555 6.475 9.832 6.475s8.136-2.542 9.832-6.476c3.277-7.602 9.665-17.833 21.486-23.402 3.784-1.783 6.134-5.49 6.134-9.675 0-4.186-2.351-7.893-6.134-9.676-11.821-5.569-18.208-15.8-21.486-23.401-1.696-3.934-5.555-6.476-9.832-6.476-4.276 0-8.136 2.542-9.832 6.476-3.277 7.602-9.665 17.832-21.485 23.401-3.784 1.783-6.135 5.49-6.135 9.676s2.351 7.893 6.135 9.676zm31.317-29.029c3.941 6.698 9.7 13.833 18.012 19.354-8.312 5.52-14.071 12.655-18.013 19.354-3.941-6.698-9.7-13.833-18.012-19.354 8.313-5.521 14.071-12.656 18.013-19.354z" />
    <path
      d="m370.738 197.135c13.854 0 25.126-11.271 25.126-25.126s-11.271-25.126-25.126-25.126-25.126 11.271-25.126 25.126c0 13.854 11.271 25.126 25.126 25.126zm0-35.253c5.583 0 10.126 4.542 10.126 10.126 0 5.583-4.542 10.126-10.126 10.126s-10.126-4.542-10.126-10.126c0-5.583 4.542-10.126 10.126-10.126z" />
    <path
      d="m370.738 291.107c13.854 0 25.126-11.271 25.126-25.126 0-13.854-11.271-25.126-25.126-25.126s-25.126 11.271-25.126 25.126c0 13.854 11.271 25.126 25.126 25.126zm0-35.253c5.583 0 10.126 4.542 10.126 10.126s-4.542 10.126-10.126 10.126-10.126-4.542-10.126-10.126c0-5.583 4.542-10.126 10.126-10.126z" />
    <path
      d="m417.725 244.12c13.855 0 25.126-11.271 25.126-25.126s-11.271-25.126-25.126-25.126c-13.854 0-25.126 11.271-25.126 25.126s11.272 25.126 25.126 25.126zm0-35.252c5.584 0 10.126 4.542 10.126 10.126s-4.542 10.126-10.126 10.126c-5.583 0-10.126-4.542-10.126-10.126s4.543-10.126 10.126-10.126z" />
    <path
      d="m323.753 193.868c-13.855 0-25.126 11.271-25.126 25.126s11.271 25.126 25.126 25.126c13.854 0 25.126-11.271 25.126-25.126s-11.271-25.126-25.126-25.126zm0 35.252c-5.584 0-10.126-4.542-10.126-10.126s4.542-10.126 10.126-10.126c5.583 0 10.126 4.542 10.126 10.126s-4.542 10.126-10.126 10.126z" />
    <path
      d="m129.728 291.107h22.445c10.129 0 18.37-8.241 18.37-18.371v-20.778c0-1.858 1.512-3.37 3.371-3.37h20.778c10.129 0 18.371-8.241 18.371-18.371v-22.445c0-10.129-8.241-18.371-18.371-18.371h-20.778c-1.858 0-3.371-1.512-3.371-3.371v-20.778c0-10.129-8.241-18.371-18.37-18.371h-22.445c-10.129 0-18.371 8.241-18.371 18.371v20.778c0 1.858-1.512 3.371-3.371 3.371h-20.777c-10.129 0-18.371 8.241-18.371 18.371v22.445c0 10.129 8.241 18.371 18.371 18.371h20.778c1.858 0 3.371 1.512 3.371 3.37v20.778c-.001 10.13 8.241 18.371 18.37 18.371zm-21.741-57.519h-20.778c-1.858 0-3.371-1.512-3.371-3.371v-22.445c0-1.858 1.512-3.371 3.371-3.371h20.778c10.129 0 18.371-8.241 18.371-18.371v-20.778c0-1.858 1.512-3.371 3.371-3.371h22.445c1.858 0 3.37 1.512 3.37 3.371v20.778c0 10.129 8.241 18.371 18.371 18.371h20.778c1.858 0 3.371 1.512 3.371 3.371v22.445c0 1.858-1.512 3.371-3.371 3.371h-20.778c-10.129 0-18.371 8.241-18.371 18.37v20.778c0 1.858-1.512 3.371-3.37 3.371h-22.445c-1.858 0-3.371-1.512-3.371-3.371v-20.778c-.001-10.13-8.242-18.37-18.371-18.37z" />
    <path
      d="m17.73 252.162c.613.154 1.228.228 1.832.228 3.357 0 6.414-2.271 7.269-5.675 1.568-6.243 3.342-12.828 5.272-19.573 1.311-4.582 2.624-9.307 3.964-14.131 11.44-41.173 24.408-87.84 54.577-114.693 24.12-21.468 54.09-22.086 71.23-11.6 6.592 4.034 12.182 9.74 18.1 15.782 3.957 4.04 8.049 8.216 12.585 12.005 17.021 14.212 39.461 22.214 63.186 22.532.067.001.134.001.201 0 23.725-.318 46.165-8.32 63.187-22.532 4.536-3.788 8.627-7.965 12.584-12.004 5.917-6.042 11.507-11.748 18.1-15.782 17.141-10.486 47.111-9.868 71.23 11.6 2.98 2.652 5.895 5.601 8.662 8.764 2.728 3.117 7.465 3.433 10.583.706 3.117-2.727 3.434-7.465.706-10.583-3.177-3.631-6.534-7.026-9.979-10.092-11.964-10.648-27.079-18.058-42.562-20.865-17.121-3.104-33.19-.45-46.469 7.675-8.179 5.004-14.69 11.651-20.987 18.08-3.869 3.95-7.524 7.681-11.483 10.988-14.361 11.991-33.418 18.752-53.672 19.045-20.253-.293-39.311-7.055-53.671-19.045-3.96-3.308-7.615-7.038-11.484-10.988-6.297-6.429-12.809-13.076-20.987-18.08-13.278-8.125-29.346-10.778-46.469-7.675-15.482 2.807-30.598 10.217-42.562 20.865-33.469 29.786-47.064 78.713-59.059 121.88-1.33 4.786-2.632 9.475-3.933 14.021-1.975 6.901-3.791 13.646-5.398 20.046-1.009 4.017 1.429 8.092 5.447 9.101z" />
    <path
      d="m494.009 223.015c-1.301-4.548-2.604-9.237-3.934-14.025-7.254-26.106-15.476-55.695-28.737-81.307-1.905-3.678-6.431-5.117-10.109-3.211-3.678 1.905-5.116 6.43-3.211 10.109 12.546 24.229 20.546 53.022 27.605 78.425 1.341 4.825 2.654 9.551 3.966 14.135 8.847 30.922 13.99 56.817 16.186 81.495 3.226 36.244-2.019 62.904-16.031 81.503-8.554 11.353-20.479 18.149-34.487 19.657-16.966 1.824-35.683-4.482-50.073-16.869-13.173-11.34-22.583-27.099-29.31-39.562-6.418-11.891-15.207-28.176-32.011-31.304-9.675-1.799-18.645-.105-27.318 1.533-3.402.643-6.617 1.25-9.81 1.636-27.513 3.327-54.263 3.327-81.776 0-3.193-.386-6.408-.993-9.811-1.636-8.674-1.638-17.643-3.334-27.319-1.533-16.802 3.127-25.592 19.413-32.01 31.304-6.726 12.462-16.136 28.221-29.31 39.562-14.391 12.388-33.111 18.693-50.073 16.869-14.008-1.507-25.934-8.304-34.487-19.657-14.013-18.599-19.257-45.259-16.031-81.503.804-9.041 2.048-18.49 3.695-28.085.701-4.083-2.04-7.96-6.122-8.661-4.086-.701-7.96 2.04-8.661 6.122-1.717 9.995-3.013 19.851-3.854 29.294-3.569 40.111 2.643 70.158 18.993 91.859 11.113 14.75 26.626 23.582 44.863 25.544 2.543.274 5.099.409 7.663.409 18.936 0 38.18-7.376 53.801-20.823 15.034-12.942 25.385-30.208 32.724-43.805 5.258-9.742 11.802-21.866 21.554-23.681 6.91-1.286 14.138.08 21.791 1.525 3.494.66 7.106 1.343 10.794 1.789 28.725 3.474 56.652 3.474 85.377 0 3.688-.446 7.3-1.128 10.793-1.788 7.652-1.446 14.88-2.813 21.79-1.526 9.753 1.815 16.297 13.939 21.555 23.681 7.339 13.597 17.691 30.864 32.724 43.805 17.736 15.268 40.139 22.709 61.463 20.415 18.237-1.961 33.75-10.794 44.864-25.544 16.349-21.701 22.562-51.748 18.992-91.858-2.284-25.65-7.592-52.434-16.708-84.293z" />
  </g>
</svg>