<?xml version="1.0" encoding="UTF-8" standalone="no"?>
<!-- Created with Inkscape (http://www.inkscape.org/) -->

<svg
   version="1.1"
   id="svg789"
   xml:space="preserve"
   width="498.25372"
   height="413.8335"
   viewBox="0 0 498.25372 413.8335"
   sodipodi:docname="joystick-editable-strokes-optimized.svg"
   inkscape:version="1.1.1 (c3084ef, 2021-09-22)"
   xmlns:inkscape="http://www.inkscape.org/namespaces/inkscape"
   xmlns:sodipodi="http://sodipodi.sourceforge.net/DTD/sodipodi-0.dtd"
   xmlns="http://www.w3.org/2000/svg"
   xmlns:svg="http://www.w3.org/2000/svg"><sodipodi:namedview
     id="namedview907"
     pagecolor="#ffffff"
     bordercolor="#666666"
     borderopacity="1.0"
     inkscape:pageshadow="2"
     inkscape:pageopacity="0.0"
     inkscape:pagecheckerboard="0"
     showgrid="false"
     fit-margin-top="0"
     fit-margin-left="0"
     fit-margin-right="0"
     fit-margin-bottom="0"
     inkscape:zoom="0.52005549"
     inkscape:cx="122.10236"
     inkscape:cy="-18.267282"
     inkscape:window-width="1440"
     inkscape:window-height="785"
     inkscape:window-x="54"
     inkscape:window-y="25"
     inkscape:window-maximized="0"
     inkscape:current-layer="svg789" /><defs
     id="defs793"><clipPath
       clipPathUnits="userSpaceOnUse"
       id="clipPath803"><path
         d="M 0,512 H 512 V 0 H 0 Z"
         id="path801" /></clipPath></defs><path
     d="m 433.36088,184.218 c 0,-9.734 -7.892,-17.626 -17.626,-17.626 -9.735,0 -17.626,7.892 -17.626,17.626 0,9.735 7.891,17.626 17.626,17.626 9.734,0 17.626,-7.891 17.626,-17.626 z"
     style="fill:none;stroke:#000000;stroke-width:1.5;stroke-linecap:round;stroke-linejoin:round;stroke-miterlimit:10;stroke-dasharray:none;stroke-opacity:1"
     id="path807" /><path
     d="m 319.91144,159.22067 c 0,-9.735 -7.892,-17.626 -17.62599,-17.626 -9.735,0 -17.626,7.891 -17.626,17.626 0,9.734 7.891,17.626 17.626,17.626 9.73399,0 17.62599,-7.892 17.62599,-17.626 z"
     style="fill:none;stroke:#000000;stroke-width:1.5;stroke-linecap:round;stroke-linejoin:round;stroke-miterlimit:10;stroke-dasharray:none;stroke-opacity:1"
     id="path811" /><path
     d="m 373.75185,136.14621 c -9.734,0 -17.626,7.892 -17.626,17.626 0,9.735 7.892,17.626 17.626,17.626 9.735,0 17.626,-7.891 17.626,-17.626 0,-9.734 -7.891,-17.626 -17.626,-17.626 z"
     style="fill:none;stroke:#000000;stroke-width:1.5;stroke-linecap:round;stroke-linejoin:round;stroke-miterlimit:10;stroke-dasharray:none;stroke-opacity:1"
     id="path815" /><path
     d="m 374.77703,215.36736 c -9.734,0 -17.626,7.892 -17.626,17.626 0,9.735 7.892,17.626 17.626,17.626 9.735,0 17.626,-7.891 17.626,-17.626 0,-9.734 -7.891,-17.626 -17.626,-17.626 z"
     style="fill:none;stroke:#000000;stroke-width:1.5;stroke-linecap:round;stroke-linejoin:round;stroke-miterlimit:10;stroke-dasharray:none;stroke-opacity:1"
     id="path819" /><path
     d="m 186.81367,237.5405 h -20.77801 c -6.004,0 -10.87,4.867 -10.87,10.871 v 20.777 c 0,6.004 -4.867,10.871 -10.871,10.871 h -22.445 c -6.004,0 -10.87,-4.867 -10.87,-10.871 v -20.777 c 0,-6.004 -4.868,-10.871 -10.871,-10.871 H 79.330661 c -6.004,0 -10.871,-4.867 -10.871,-10.871 v -22.445 c 0,-6.003 4.867,-10.871 10.871,-10.871 h 20.777999 c 6.003,0 10.871,-4.866 10.871,-10.87 v -20.778 c 0,-6.003 4.866,-10.871 10.87,-10.871 h 22.445 c 6.004,0 10.871,4.868 10.871,10.871 v 20.778 c 0,6.004 4.866,10.87 10.87,10.87 h 20.77801 c 6.004,0 10.871,4.868 10.871,10.871 v 22.445 c 0,6.004 -4.867,10.871 -10.871,10.871 z"
     style="fill:none;stroke:#000000;stroke-width:1.5;stroke-linecap:round;stroke-linejoin:round;stroke-miterlimit:10;stroke-dasharray:none;stroke-opacity:1"
     id="path823" /><path
     d="m 435.93526,108.4005 c -2.97595,-3.34 -6.13421,-6.494 -9.49209,-9.428001 -22.03551,-19.257 -56.4474,-27.511 -81.61062,-12.395 -12.33055,7.407 -21.06593,19.329001 -32.16007,28.427001 -16.62746,13.631 -38.06105,20.506 -59.55983,20.789 -21.49776,-0.283 -42.93237,-7.158 -59.55881,-20.789 -11.09414,-9.098 -19.83053,-21.020001 -32.16007,-28.427001 -25.16321,-15.116 -59.57613,-6.862 -81.610616,12.395 C 43.609315,130.5855 30.665644,187.5095 17.895112,231.3365 c -1.915733,6.574 -3.736748,13.177 -5.433511,19.809"
     style="fill:none;stroke:#000000;stroke-width:1.51379;stroke-linecap:round;stroke-linejoin:round;stroke-miterlimit:10;stroke-dasharray:none;stroke-opacity:1"
     id="path835" /><path
     d="m 5.5018008,274.75426 c -1.632,9.502 -2.918,19.064 -3.775,28.69 -2.61900004,29.427 -0.95300004,62.171 17.5120002,86.681 23.597,31.317 66.843,28.579 95.443999,3.958 13.2,-11.364 22.743,-26.355 31.017,-41.683 6.3,-11.672 13.742,-25.065 26.782,-27.493 11.793,-2.194 23.267,1.841 34.857,3.242 28.278,3.419 55.27,3.423 83.577,0 11.589,-1.401 23.063,-5.436 34.856,-3.242 13.04,2.428 20.483,15.821 26.782,27.493 8.274,15.328 17.817,30.319 31.017,41.683 28.601,24.621 71.848,27.359 95.444,-3.958 18.466,-24.51 20.131,-57.254 17.512,-86.681 -2.505,-28.15 -8.684,-55.764 -16.446,-82.893 -8.38,-29.287 -16.835,-64.423 -32.122,-93.946"
     style="display:inline;fill:none;stroke:#000000;stroke-width:1.5;stroke-linecap:round;stroke-linejoin:round;stroke-miterlimit:10;stroke-dasharray:none;stroke-opacity:1"
     id="path839" /></svg>
