<?xml version="1.0" encoding="UTF-8" standalone="no"?>
<!-- Created with Inkscape (http://www.inkscape.org/) -->

<svg
   version="1.1"
   id="svg789"
   xml:space="preserve"
   width="682.66669"
   height="682.66669"
   viewBox="0 0 682.66669 682.66669"
   xmlns="http://www.w3.org/2000/svg"
   xmlns:svg="http://www.w3.org/2000/svg"><defs
     id="defs793"><clipPath
       clipPathUnits="userSpaceOnUse"
       id="clipPath803"><path
         d="M 0,512 H 512 V 0 H 0 Z"
         id="path801" /></clipPath></defs><g
     id="g795"
     transform="matrix(1.3333333,0,0,-1.3333333,0,682.66667)"><g
       id="g797"><g
         id="g799"
         clip-path="url(#clipPath803)"><g
           id="g805"
           transform="translate(388.5132,339.8569)"><path
             d="m 0,0 c 0,-9.734 -7.892,-17.626 -17.626,-17.626 -9.735,0 -17.626,7.892 -17.626,17.626 0,9.735 7.891,17.626 17.626,17.626 C -7.892,17.626 0,9.735 0,0 Z"
             style="fill:none;stroke:#000000;stroke-width:15;stroke-linecap:round;stroke-linejoin:round;stroke-miterlimit:10;stroke-dasharray:none;stroke-opacity:1"
             id="path807" /></g><g
           id="g809"
           transform="translate(388.5132,245.8853)"><path
             d="m 0,0 c 0,-9.735 -7.892,-17.626 -17.626,-17.626 -9.735,0 -17.626,7.891 -17.626,17.626 0,9.734 7.891,17.626 17.626,17.626 C -7.892,17.626 0,9.734 0,0 Z"
             style="fill:none;stroke:#000000;stroke-width:15;stroke-linecap:round;stroke-linejoin:round;stroke-miterlimit:10;stroke-dasharray:none;stroke-opacity:1"
             id="path811" /></g><g
           id="g813"
           transform="translate(417.8745,275.2456)"><path
             d="m 0,0 c -9.734,0 -17.626,7.892 -17.626,17.626 0,9.735 7.892,17.626 17.626,17.626 9.735,0 17.626,-7.891 17.626,-17.626 C 17.626,7.892 9.735,0 0,0 Z"
             style="fill:none;stroke:#000000;stroke-width:15;stroke-linecap:round;stroke-linejoin:round;stroke-miterlimit:10;stroke-dasharray:none;stroke-opacity:1"
             id="path815" /></g><g
           id="g817"
           transform="translate(323.9023,275.2456)"><path
             d="m 0,0 c -9.734,0 -17.626,7.892 -17.626,17.626 0,9.735 7.892,17.626 17.626,17.626 9.735,0 17.626,-7.891 17.626,-17.626 C 17.626,7.892 9.735,0 0,0 Z"
             style="fill:none;stroke:#000000;stroke-width:15;stroke-linecap:round;stroke-linejoin:round;stroke-miterlimit:10;stroke-dasharray:none;stroke-opacity:1"
             id="path819" /></g><g
           id="g821"
           transform="translate(194.8413,314.9644)"><path
             d="m 0,0 h -20.778 c -6.004,0 -10.87,4.867 -10.87,10.871 v 20.777 c 0,6.004 -4.867,10.871 -10.871,10.871 h -22.445 c -6.004,0 -10.87,-4.867 -10.87,-10.871 V 10.871 C -75.834,4.867 -80.702,0 -86.705,0 h -20.778 c -6.004,0 -10.871,-4.867 -10.871,-10.871 v -22.445 c 0,-6.003 4.867,-10.871 10.871,-10.871 h 20.778 c 6.003,0 10.871,-4.866 10.871,-10.87 v -20.778 c 0,-6.003 4.866,-10.871 10.87,-10.871 h 22.445 c 6.004,0 10.871,4.868 10.871,10.871 v 20.778 c 0,6.004 4.866,10.87 10.87,10.87 H 0 c 6.004,0 10.871,4.868 10.871,10.871 v 22.445 C 10.871,-4.867 6.004,0 0,0 Z"
             style="fill:none;stroke:#000000;stroke-width:15;stroke-linecap:round;stroke-linejoin:round;stroke-miterlimit:10;stroke-dasharray:none;stroke-opacity:1"
             id="path823" /></g><g
           id="g825"
           transform="translate(145.9609,74.1499)"><path
             d="m 0,0 c -3.582,-8.308 -10.994,-20.535 -25.176,-27.217 -2.442,-1.151 -2.442,-4.632 0,-5.782 14.182,-6.682 21.594,-18.909 25.176,-27.217 1.118,-2.594 4.771,-2.594 5.889,0 3.581,8.308 10.994,20.535 25.176,27.217 2.442,1.15 2.442,4.631 0,5.782 C 16.883,-20.535 9.47,-8.308 5.889,0 4.771,2.593 1.118,2.593 0,0 Z"
             style="fill:none;stroke:#000000;stroke-width:15;stroke-linecap:round;stroke-linejoin:round;stroke-miterlimit:10;stroke-dasharray:none;stroke-opacity:1"
             id="path827" /></g><g
           id="g829"
           transform="translate(471.4839,498.0659)"><path
             d="m 0,0 c -3.582,-8.308 -10.994,-20.535 -25.176,-27.217 -2.442,-1.15 -2.442,-4.631 0,-5.782 14.182,-6.682 21.594,-18.909 25.176,-27.217 1.118,-2.593 4.771,-2.593 5.889,0 3.582,8.308 10.994,20.535 25.176,27.217 2.442,1.151 2.442,4.632 0,5.782 C 16.883,-20.535 9.471,-8.308 5.889,0 4.771,2.594 1.118,2.594 0,0 Z"
             style="fill:none;stroke:#000000;stroke-width:15;stroke-linecap:round;stroke-linejoin:round;stroke-miterlimit:10;stroke-dasharray:none;stroke-opacity:1"
             id="path831" /></g><g
           id="g833"
           transform="translate(435.502,409.7227)"><path
             d="m 0,0 c -2.922,3.34 -6.023,6.494 -9.32,9.428 -21.636,19.257 -55.424,27.511 -80.131,12.395 -12.107,-7.407 -20.684,-19.329 -31.577,-28.427 -16.326,-13.631 -37.371,-20.506 -58.48,-20.789 -21.108,0.283 -42.154,7.158 -58.479,20.789 -10.893,9.098 -19.471,21.02 -31.577,28.427 -24.707,15.116 -58.496,6.862 -80.131,-12.395 -35.518,-31.613 -48.227,-88.537 -60.766,-132.364 -1.881,-6.574 -3.669,-13.177 -5.335,-19.809"
             style="fill:none;stroke:#000000;stroke-width:15;stroke-linecap:round;stroke-linejoin:round;stroke-miterlimit:10;stroke-dasharray:none;stroke-opacity:1"
             id="path835" /></g><g
           id="g837"
           transform="translate(12.3691,232.584)"><path
             d="m 0,0 c -1.632,-9.502 -2.918,-19.064 -3.775,-28.69 -2.619,-29.427 -0.953,-62.171 17.512,-86.681 23.597,-31.317 66.843,-28.579 95.444,-3.958 13.2,11.364 22.743,26.355 31.017,41.683 6.3,11.672 13.742,25.065 26.782,27.493 11.793,2.194 23.267,-1.841 34.857,-3.242 28.278,-3.419 55.27,-3.423 83.577,0 11.589,1.401 23.063,5.436 34.856,3.242 13.04,-2.428 20.483,-15.821 26.782,-27.493 8.274,-15.328 17.817,-30.319 31.017,-41.683 28.601,-24.621 71.848,-27.359 95.444,3.958 18.466,24.51 20.131,57.254 17.512,86.681 -2.505,28.15 -8.684,55.764 -16.446,82.893 -8.38,29.287 -16.835,64.423 -32.122,93.946"
             style="fill:none;stroke:#000000;stroke-width:15;stroke-linecap:round;stroke-linejoin:round;stroke-miterlimit:10;stroke-dasharray:none;stroke-opacity:1"
             id="path839" /></g></g></g></g></svg>
