<svg xmlns="http://www.w3.org/2000/svg" version="1.1" xmlns:xlink="http://www.w3.org/1999/xlink" xmlns:svgjs="http://svgjs.com/svgjs" width="512" height="512" x="0" y="0" viewBox="0 0 512 512.13615" style="enable-background:new 0 0 512 512" xml:space="preserve" class=""><g transform="matrix(-1,2.4492935982947064e-16,2.4492935982947064e-16,1,486.53515625,-1.1368683772161603e-13)"><path d="m331.671875 103.121094c-4.121094 4.480468-8.730469 8.488281-13.738281 11.945312l-52.136719 20.3125c-4.351563.679688-7.765625 1.023438-9.558594 1.191406-1.023437.085938-1.621093.085938-1.621093.085938s-.085938-2.386719.085937-6.398438c.085937-2.21875.253906-4.949218.597656-8.105468v-.085938c1.730469-23.890625 10.855469-46.644531 26.109375-65.109375 14.464844-14.621093 32.78125-24.828125 52.824219-29.441406 7.933594-2.101563 16.046875-3.472656 24.234375-4.09375 0 0 1.875 48.382813-26.796875 79.699219zm0 0" fill="#7facfa" data-original="#7facfa"></path><path d="m334.234375 27.515625c-.171875 12.289063-3.074219 49.75-26.710937 75.605469-4.121094 4.480468-8.730469 8.488281-13.738282 11.945312l-39.082031 15.191406c.085937-2.21875.253906-4.949218.597656-8.105468v-.085938c1.730469-23.890625 10.855469-46.644531 26.109375-65.109375 14.464844-14.621093 32.78125-24.828125 52.824219-29.441406zm0 0" fill="#a4c2f7" data-original="#a4c2f7"></path><path d="m452.078125 347.515625c-26.707031 154.878906-142.507813 179.371094-195.925781 138.582031h-.167969c-53.421875 40.789063-169.21875 16.296875-195.925781-138.582031-2.730469-15.617187-4.78125-30.464844-6.144532-44.628906 4.242188 2.910156 9.273438 4.460937 14.421876 4.4375 14.136718 0 25.597656-11.460938 25.597656-25.601563.015625-.511718-.011719-1.027344-.085938-1.535156 2.753906 1.042969 5.675782 1.5625 8.621094 1.535156 14.136719 0 25.597656-11.460937 25.597656-25.597656-.003906-3.25-.640625-6.46875-1.875-9.472656 9.683594-2.628906 16.941406-10.675782 18.558594-20.582032 1.617188-9.902343-2.703125-19.839843-11.050781-25.414062 9.414062-6.242188 13.621093-17.917969 10.359375-28.730469-3.265625-10.8125-13.230469-18.207031-24.523438-18.203125-.515625-.011718-1.027344.015625-1.535156.085938 1.039062-2.753906 1.558594-5.675782 1.535156-8.617188.023438-10.046875-5.859375-19.171875-15.019531-23.296875 13.6875-7.421875 29.066406-11.15625 44.628906-10.835937 80.128907 0 106.839844 32.597656 106.839844 32.597656h.167969s26.710937-32.597656 106.839844-32.597656c80.125 0 115.796874 81.492187 89.085937 236.457031zm0 0" fill="#e8edfc" data-original="#e8edfc" class=""></path><path d="m452.078125 347.515625c-20.820313 120.917969-96.085937 162.390625-153.429687 155.222656 52.226562-6.316406 109.996093-51.628906 127.832031-155.222656 25.597656-148.734375-6.144531-229.800781-79.617188-236.03125 5.121094-.257813 10.496094-.425781 16.128907-.425781 80.210937 0 115.796874 81.492187 89.085937 236.457031zm0 0" fill="#cad9fc" data-original="#cad9fc"></path><path d="m149.144531 111.058594c-15.5625-.320313-30.941406 3.414062-44.628906 10.835937 9.160156 4.125 15.042969 13.25 15.019531 23.296875.023438 2.941406-.496094 5.863282-1.535156 8.617188.507812-.070313 1.019531-.097656 1.535156-.085938 11.292969-.003906 21.257813 7.390625 24.523438 18.203125 3.261718 10.8125-.945313 22.488281-10.359375 28.730469 8.347656 5.574219 12.667969 15.511719 11.050781 25.414062-1.617188 9.90625-8.875 17.953126-18.558594 20.582032 1.234375 3.003906 1.871094 6.222656 1.875 9.472656 0 14.136719-11.460937 25.597656-25.597656 25.597656-2.945312.027344-5.867188-.492187-8.621094-1.535156.074219.507812.101563 1.023438.085938 1.535156-.011719 9.132813-4.910156 17.558594-12.839844 22.085938 3.886719 2.300781 8.324219 3.515625 12.839844 3.515625 14.140625 0 25.601562-11.460938 25.601562-25.601563.015625-.511718-.015625-1.027344-.085937-1.535156 2.753906 1.042969 5.675781 1.5625 8.617187 1.535156 14.140625 0 25.601563-11.460937 25.601563-25.597656-.003907-3.25-.640625-6.46875-1.878907-9.472656 9.6875-2.628906 16.941407-10.675782 18.558594-20.582032 1.617188-9.902343-2.703125-19.839843-11.046875-25.414062 9.410157-6.242188 13.621094-17.917969 10.355469-28.730469-3.261719-10.8125-13.226562-18.207031-24.523438-18.203125-.511718-.011718-1.023437.015625-1.535156.085938 1.042969-2.753906 1.5625-5.675782 1.535156-8.617188.027344-10.046875-5.855468-19.171875-15.015624-23.296875 10.902343-5.949219 22.960937-9.46875 35.351562-10.316406-5.203125-.316406-10.589844-.519531-16.324219-.519531zm0 0" fill="#ffffff" data-original="#ffffff"></path><path d="m85.65625 347.515625c-2.628906-15.019531-4.582031-29.285156-5.972656-42.957031-8.261719 4.207031-18.160156 3.550781-25.796875-1.707032 1.367187 14.167969 3.414062 29.015626 6.144531 44.628907 20.933594 121.261719 96.402344 162.59375 153.839844 155.257812-52.351563-6.214843-110.300782-51.378906-128.214844-155.222656zm0 0" fill="#ffffff" data-original="#ffffff"></path><path d="m68.472656 346.066406c5.15625 35.402344 18.722656 69.050782 39.558594 98.132813 8.277344 11.136719 18.152344 20.996093 29.304688 29.25 11.117187 8.023437 23.570312 14.007812 36.777343 17.675781 26.027344 7.957031 54.261719 3.609375 76.691407-11.8125l10.359374 13.570312c-26.652343 18.671876-60.398437 24.089844-91.554687 14.703126-15.179687-4.207032-29.484375-11.078126-42.257813-20.292969l-9.121093-7.339844-4.515625-3.710937-4.042969-4.191407-8.066406-8.414062c-2.546875-2.902344-4.9375-5.945313-7.160157-9.105469-22.503906-31.257812-37.179687-67.460938-42.792968-105.5625zm0 0" fill="#ffffff" data-original="#ffffff"></path><g fill="#428dff"><path d="m70.503906 388.84375c4.40625-1.414062 6.882813-6.089844 5.578125-10.53125-1.707031-5.25-3.066406-10.605469-4.0625-16.035156l-3.546875-16.210938-16.820312 2.902344 3.730468 17.132812c1.078126 5.757813 2.519532 11.441407 4.316407 17.015626.660156 2.199218 2.175781 4.042968 4.207031 5.121093 2.027344 1.074219 4.402344 1.292969 6.597656.605469zm0 0" fill="#428dff" data-original="#428dff" class=""></path><path d="m261.1875 492.882812-10.359375-13.570312c-22.421875 15.417969-50.65625 19.765625-76.679687 11.8125-13.210938-3.667969-25.664063-9.652344-36.777344-17.675781-11.15625-8.253907-21.03125-18.113281-29.304688-29.25l-4.855468-6.484375c-2.667969-3.699219-7.722657-4.738282-11.632813-2.390625-1.988281 1.210937-3.386719 3.191406-3.859375 5.46875-.46875 2.28125.023438 4.652343 1.367188 6.554687l5.359374 7.183594c2.222657 3.160156 4.613282 6.203125 7.160157 9.105469l8.066406 8.414062 4.042969 4.191407 4.515625 3.710937 9.121093 7.339844c12.773438 9.214843 27.078126 16.085937 42.257813 20.292969 31.164063 9.394531 64.917969 3.976562 91.578125-14.703126zm0 0" fill="#428dff" data-original="#428dff" class=""></path><path d="m87.464844 409.167969c-.925782-1.992188-2.582032-3.558594-4.625-4.375l-1.578125-.417969c-.5625-.109375-1.132813-.144531-1.707031-.105469-.542969-.039062-1.09375.003907-1.628907.121094-.554687.128906-1.101562.289063-1.636719.488281-2.082031.871094-3.734374 2.535156-4.59375 4.625-.378906 1.078125-.542968 2.21875-.484374 3.359375.125 3.515625 2.265624 6.640625 5.496093 8.03125 1.042969.367188 2.152344.515625 3.257813.433594 1.105468-.0625 2.1875-.355469 3.175781-.851563 2.011719-1.070312 3.589844-2.8125 4.453125-4.925781.75-2.070312.703125-4.34375-.128906-6.382812zm0 0" fill="#428dff" data-original="#428dff" class=""></path><path d="m311.046875 512.125c-21.40625.332031-42.34375-6.308594-59.648437-18.917969-3.113282-2.070312-4.519532-5.921875-3.46875-9.507812 1.050781-3.589844 4.316406-6.074219 8.054687-6.136719 1.914063-.011719 3.785156.585938 5.339844 1.707031 25.8125 17.761719 58.960937 20.941407 87.679687 8.414063 28.160156-11.042969 77.851563-44.125 94.660156-141.652344 16.480469-95.574219 9.386719-164.8125-20.386718-200.207031-14.988282-17.554688-37.226563-27.230469-60.285156-26.234375-74.242188 0-100.039063 29.234375-100.292969 29.535156-1.726563 1.847656-4.144531 2.890625-6.667969 2.878906-2.527344-.011718-4.9375-1.078125-6.644531-2.9375-.203125-.242187-25.957031-29.476562-100.242188-29.476562-9.667969-.101563-19.285156 1.386718-28.464843 4.414062 4.78125 6.027344 7.382812 13.492188 7.386718 21.1875v1.074219c11.21875 2.894531 20.203125 11.277344 23.863282 22.265625 3.660156 10.988281 1.496093 23.085938-5.746094 32.125 6.246094 7.816406 8.746094 17.976562 6.847656 27.796875-1.902344 9.824219-8.019531 18.316406-16.726562 23.234375.195312 1.46875.296874 2.953125.296874 4.4375-.09375 9.210938-3.867187 18-10.480468 24.414062-6.613282 6.410157-15.519532 9.910157-24.726563 9.71875-3.914062 15.0625-17.5 25.582032-33.058593 25.601563-1.488282 0-2.972657-.09375-4.445313-.285156 1.210937 9.789062 2.746094 19.996093 4.582031 30.472656.808594 4.644531-2.296875 9.066406-6.941406 9.878906s-9.070312-2.296875-9.878906-6.941406c-2.765625-15.828125-4.863282-31.0625-6.230469-45.285156-.316406-3.304688 1.308594-6.492188 4.167969-8.175781 2.863281-1.679688 6.4375-1.550782 9.171875.332031 2.816406 1.929687 6.15625 2.953125 9.574219 2.933593 9.425781 0 17.066406-7.640624 17.066406-17.066406-.492188-3.046875.675781-6.125 3.0625-8.078125 2.363281-1.960937 5.601562-2.5 8.472656-1.410156 1.769531.65625 3.644531.980469 5.53125.957031 9.425781 0 17.066406-7.640625 17.066406-17.066406-.003906-2.136719-.425781-4.253906-1.238281-6.230469-.929687-2.269531-.839844-4.832031.25-7.03125 1.09375-2.199219 3.078125-3.824219 5.449219-4.453125 6.445312-1.769531 11.265625-7.132812 12.335937-13.730468 1.070313-6.597657-1.8125-13.210938-7.367187-16.921876-2.375-1.582031-3.800782-4.246093-3.800782-7.101562 0-2.851562 1.425782-5.515625 3.800782-7.097656 4.800781-3.136719 7.679687-8.5 7.636718-14.234375 0-9.425781-7.640624-17.066407-17.066406-17.066407-3.035156.496094-6.105468-.65625-8.0625-3.027343-1.957031-2.375-2.503906-5.609375-1.433594-8.492188.660157-1.773437.984376-3.65625.960938-5.546875.054688-6.703125-3.875-12.800781-10-15.523437-2.929688-1.324219-4.863281-4.183594-5.007812-7.394531-.140626-3.210938 1.535156-6.230469 4.335937-7.8125 14.960937-8.144532 31.785156-12.261719 48.816406-11.9375 62.421875 0 94.355469 19.285156 106.921875 29.535156 12.570313-10.25 44.503906-29.535156 106.925782-29.535156 28.121093-1.097657 55.179687 10.835937 73.335937 32.34375 33.160156 39.363281 41.511719 113.398437 24.15625 214.101562-18.246094 105.777344-73.761719 142.292969-105.25 154.621094-14.066406 5.578125-29.054687 8.472656-44.1875 8.535156zm0 0" fill="#428dff" data-original="#428dff" class=""></path><path d="m311.167969 477.992188c-4.714844 0-8.535157-3.820313-8.535157-8.535157 0-4.710937 3.820313-8.53125 8.535157-8.53125 36.011719 0 83.507812-31.574219 98.867187-120.65625.519532-3.003906 2.601563-5.503906 5.460938-6.554687 2.859375-1.054688 6.066406-.5 8.410156 1.449218 2.34375 1.953126 3.464844 5.003907 2.949219 8.007813-17.1875 99.507813-73.046875 134.820313-115.6875 134.820313zm0 0" fill="#428dff" data-original="#428dff" class=""></path><path d="m256.007812 152.195312c-.253906 0-.519531 0-.785156 0-2.253906-.210937-4.332031-1.3125-5.773437-3.058593-1.441407-1.746094-2.128907-3.996094-1.914063-6.25.324219-3.550781 7.023438-87.398438-63.839844-126.769531-2.761718-1.429688-4.53125-4.246094-4.613281-7.355469-.085937-3.105469 1.53125-6.015625 4.210938-7.589844 2.683593-1.570313 6.007812-1.5625 8.679687.027344 80.742188 44.851562 72.925782 139.265625 72.535156 143.265625-.414062 4.382812-4.097656 7.734375-8.5 7.730468zm0 0" fill="#428dff" data-original="#428dff" class=""></path><path d="m254.644531 145.191406c-4.554687-.03125-8.296875-3.601562-8.535156-8.148437-.117187-5.183594.113281-10.371094.691406-15.523438v-.324219c1.84375-25.71875 11.742188-50.203124 28.296875-69.972656 30.71875-33.453125 80.835938-36.207031 82.953125-36.308594 2.277344-.125 4.507813.679688 6.175781 2.234376 1.683594 1.542968 2.675782 3.695312 2.757813 5.972656.085937 2.117187 1.65625 52.277344-29.011719 85.792968-4.539062 4.945313-9.617187 9.363282-15.140625 13.175782-3.855469 2.570312-9.054687 1.589844-11.714843-2.203125-2.660157-3.792969-1.808594-9.015625 1.917968-11.765625 4.496094-3.101563 8.628906-6.695313 12.324219-10.71875 14.820313-18.265625 23.347656-40.832032 24.3125-64.339844-14.59375 2.3125-43.257813 9.300781-61.980469 29.6875-14.019531 17.007812-22.371094 37.96875-23.890625 59.957031v.375c-.148437 1.449219-.273437 2.796875-.367187 4.050781l1.046875-.160156c3.011719-.472656 6.050781.695313 7.964843 3.066406 1.917969 2.371094 2.425782 5.585938 1.328126 8.429688-1.09375 2.847656-3.625 4.890625-6.636719 5.367188-4.582031.714843-8.183594 1.082031-10.078125 1.261718-1.425782.09375-2.253906.09375-2.414063.09375zm0 0" fill="#428dff" data-original="#428dff" class=""></path><path d="m93.933594 42.789062c-4.710938 0-8.53125-3.820312-8.53125-8.53125v-8.535156c0-4.710937 3.820312-8.53125 8.53125-8.53125 4.714844 0 8.535156 3.820313 8.535156 8.53125v8.535156c0 4.710938-3.820312 8.53125-8.535156 8.53125zm0 0" fill="#428dff" data-original="#428dff" class=""></path><path d="m119.535156 59.859375h-8.535156c-4.710938 0-8.53125-3.824219-8.53125-8.535156 0-4.714844 3.820312-8.535157 8.53125-8.535157h8.535156c4.710938 0 8.53125 3.820313 8.53125 8.535157 0 4.710937-3.820312 8.535156-8.53125 8.535156zm0 0" fill="#428dff" data-original="#428dff" class=""></path><path d="m93.933594 85.457031c-4.710938 0-8.53125-3.820312-8.53125-8.53125v-8.535156c0-4.710937 3.820312-8.53125 8.53125-8.53125 4.714844 0 8.535156 3.820313 8.535156 8.53125v8.535156c0 4.710938-3.820312 8.53125-8.535156 8.53125zm0 0" fill="#428dff" data-original="#428dff" class=""></path><path d="m76.867188 59.859375h-8.53125c-4.714844 0-8.535157-3.824219-8.535157-8.535156 0-4.714844 3.820313-8.535157 8.535157-8.535157h8.53125c4.714843 0 8.535156 3.820313 8.535156 8.535157 0 4.710937-3.820313 8.535156-8.535156 8.535156zm0 0" fill="#428dff" data-original="#428dff" class=""></path><path d="m452.335938 76.925781c-4.714844 0-8.535157-3.820312-8.535157-8.535156v-8.53125c0-4.714844 3.820313-8.535156 8.535157-8.535156 4.710937 0 8.53125 3.820312 8.53125 8.535156v8.53125c0 4.714844-3.820313 8.535156-8.53125 8.535156zm0 0" fill="#428dff" data-original="#428dff" class=""></path><path d="m477.933594 93.992188h-8.53125c-4.714844 0-8.535156-3.820313-8.535156-8.535157 0-4.710937 3.820312-8.53125 8.535156-8.53125h8.53125c4.714844 0 8.535156 3.820313 8.535156 8.53125 0 4.714844-3.820312 8.535157-8.535156 8.535157zm0 0" fill="#428dff" data-original="#428dff" class=""></path><path d="m452.335938 119.589844c-4.714844 0-8.535157-3.820313-8.535157-8.53125v-8.535156c0-4.710938 3.820313-8.53125 8.535157-8.53125 4.710937 0 8.53125 3.820312 8.53125 8.53125v8.535156c0 4.710937-3.820313 8.53125-8.53125 8.53125zm0 0" fill="#428dff" data-original="#428dff" class=""></path><path d="m435.269531 93.992188h-8.535156c-4.710937 0-8.53125-3.820313-8.53125-8.535157 0-4.710937 3.820313-8.53125 8.53125-8.53125h8.535156c4.710938 0 8.53125 3.820313 8.53125 8.53125 0 4.714844-3.820312 8.535157-8.53125 8.535157zm0 0" fill="#428dff" data-original="#428dff" class=""></path><path d="m34.203125 196.390625c-4.714844 0-8.535156-3.820313-8.535156-8.53125v-8.535156c0-4.714844 3.820312-8.535157 8.535156-8.535157 4.710937 0 8.53125 3.820313 8.53125 8.535157v8.535156c0 4.710937-3.820313 8.53125-8.53125 8.53125zm0 0" fill="#428dff" data-original="#428dff" class=""></path><path d="m17.132812 213.457031h-8.53125c-4.714843 0-8.5351558-3.820312-8.5351558-8.53125 0-4.714843 3.8203128-8.535156 8.5351558-8.535156h8.53125c4.714844 0 8.535157 3.820313 8.535157 8.535156 0 4.710938-3.820313 8.53125-8.535157 8.53125zm0 0" fill="#428dff" data-original="#428dff" class=""></path><path d="m59.800781 213.457031h-8.53125c-4.714843 0-8.535156-3.820312-8.535156-8.53125 0-4.714843 3.820313-8.535156 8.535156-8.535156h8.53125c4.714844 0 8.535157 3.820313 8.535157 8.535156 0 4.710938-3.820313 8.53125-8.535157 8.53125zm0 0" fill="#428dff" data-original="#428dff" class=""></path><path d="m34.203125 239.058594c-4.714844 0-8.535156-3.820313-8.535156-8.535156v-8.53125c0-4.714844 3.820312-8.535157 8.535156-8.535157 4.710937 0 8.53125 3.820313 8.53125 8.535157v8.53125c0 4.714843-3.820313 8.535156-8.53125 8.535156zm0 0" fill="#428dff" data-original="#428dff" class=""></path></g></g></svg>