<svg xmlns="http://www.w3.org/2000/svg" viewBox="0 0 181.06 176.68"><defs><style>.a{fill:#25272d;opacity:0.19;}.b{fill:#ed1c25;}.c{fill:#e5e5e5;}.d{fill:#ce1d2a;}.e{fill:#a36936;}.f{fill:#8c5129;}.g{fill:#b77544;}.h{fill:#d6212e;}</style></defs><title>Element 11</title><path class="a" d="M147.35,106l-1-27.85-14.43-20-14.18-11.9L101,44.77,79.25,54.14,68.33,62.74c.39-4.89.79-10,.79-10.38,0-.76-3.8-17.22-3.8-17.22V24.52L54.94,26l-2.28,2.78,2.53,10.13L60,53.89l.56,10-5.37-.63L42.54,55.4,24.31,57.94,2.53,78.7,0,104l4.56,25.32,20,32.15,24.31,14.18,9.62-.51,14.43-5.82,18,7.34,13.93-.51,19.48-10.09,18.47-30.61-2.1,2.68,2.12-3.49Z"/><polygon class="b" points="99.79 40 88.9 38.74 76.25 30.89 58.02 33.42 36.24 54.18 33.71 79.5 38.27 104.82 58.27 136.97 82.58 151.15 92.2 150.65 106.63 144.82 124.6 152.16 138.53 151.66 157.26 141.78 176.51 110.14 181.06 81.53 180.05 53.67 165.62 33.67 151.44 21.77 134.73 20.25 112.96 29.62 99.79 40"/><polygon class="c" points="142.65 33.76 135.81 35.03 129.74 40.6 130.5 53.76 141.64 69.21 155.56 79.84 163.92 77.31 164.68 56.55 151.01 37.05 142.65 33.76"/><polygon class="d" points="87.55 47.78 81.72 41.71 93.87 41.71 112.58 34.66 105.29 45.59 98.73 49.24 91.44 50.7 87.55 47.78"/><path class="e" d="M94.73,47.35h6.58s1.52-18.74,1.52-19.5S99,10.63,99,10.63V0L88.65,1.52,86.37,4.3,88.9,14.43l4.81,14.94Z"/><polygon class="f" points="91.92 6.47 96.06 12.79 99.7 27.61 99.21 47.3 101.4 45.59 102.83 27.85 99.03 10.63 99.03 0 92.9 2.59 91.92 6.47"/><polygon class="g" points="88.65 1.52 86.37 4.3 91.92 6.47 99.03 0 88.65 1.52"/><polygon class="c" points="81.81 41.6 77.26 41.86 92.7 53.25 102.32 51.98 108.15 45.4 113.97 32.74 105.36 41.1 94.73 46.41 84.6 42.36 81.81 41.6"/><polygon class="h" points="36.24 54.18 33.71 79.5 38.27 104.82 58.27 136.97 82.69 149.59 100.67 145.46 106.75 137.68 82.69 123.83 63.74 97.11 49.16 66.98 58.02 33.42 36.24 54.18"/><polygon class="d" points="82.58 151.15 92.2 150.65 106.63 144.82 124.6 152.16 138.53 151.66 158.01 141.57 176.48 110.95 155.34 137.92 138.09 145.46 124.97 145.21 111.36 139.38 106.5 135.74 91.19 145.7 82.45 145.94 58.27 136.97 82.58 151.15"/></svg>