<svg xmlns="http://www.w3.org/2000/svg" version="1.1" xmlns:xlink="http://www.w3.org/1999/xlink" xmlns:svgjs="http://svgjs.com/svgjs" width="512" height="512" x="0" y="0" viewBox="0 0 512 512.2358" style="enable-background:new 0 0 512 512" xml:space="preserve"><g transform="matrix(-1,0,0,1,486.63671875,0)"><path d="m363.039062 102.492188c-7.199218 0-13.949218.28125-20.355468.753906 25.804687-33.230469 24.4375-78.183594 24.355468-80.1875-.085937-2.273438-1.078124-4.417969-2.757812-5.957032-1.664062-1.558593-3.898438-2.367187-6.175781-2.238281-2.113281.105469-52.238281 2.859375-82.949219 36.308594-7.898438 8.839844-14.175781 19.003906-18.539062 30.023437-10.277344-34.082031-33.46875-62.800781-64.625-80.027343-2.667969-1.5625-5.976563-1.558594-8.644532.015625-2.664062 1.570312-4.269531 4.460937-4.195312 7.554687.074218 3.09375 1.816406 5.90625 4.558594 7.347657 48.433593 26.910156 60.621093 74.570312 63.386718 103.195312-.070312.617188-.175781 1.289062-.238281 1.886719l-.023437.316406c-.140626 1.324219-.246094 2.5625-.34375 3.753906-16.519532-10.226562-47-22.746093-97.296876-22.746093-17.03125-.320313-33.855468 3.792968-48.816406 11.9375-2.800781 1.582031-4.476562 4.601562-4.335937 7.8125.144531 3.214843 2.082031 6.074218 5.011719 7.398437 6.121093 2.722656 10.050781 8.816406 9.996093 15.519531.023438 1.894532-.304687 3.773438-.964843 5.546875-1.066407 2.882813-.519532 6.117188 1.4375 8.488281 1.957031 2.375 5.027343 3.527344 8.0625 3.03125 9.417968.011719 17.054687 7.644532 17.066406 17.066407.039062 5.734375-2.835938 11.09375-7.632813 14.234375-2.375 1.582031-3.800781 4.246094-3.800781 7.101562 0 2.851563 1.425781 5.515625 3.800781 7.097656 5.582031 3.695313 8.484375 10.320313 7.414063 16.929688-1.074219 6.609375-5.917969 11.976562-12.382813 13.71875-2.371093.632812-4.359375 2.257812-5.449219 4.457031-1.089843 2.199219-1.183593 4.761719-.25 7.03125.808594 1.976563 1.226563 4.09375 1.234376 6.230469-.011719 9.421875-7.648438 17.054688-17.066407 17.066406-1.890625.027344-3.765625-.300781-5.535156-.957031-2.871094-1.085937-6.101563-.550781-8.464844 1.40625-2.390625 1.957031-3.558593 5.035156-3.066406 8.085937-.011719 9.417969-7.648437 17.054688-17.070313 17.066407-3.414062.019531-6.753906-1.003907-9.574218-2.933594-2.730469-1.882813-6.304688-2.007813-9.164063-.328125s-4.484375 4.867188-4.167969 8.167969c1.359376 14.222656 3.457032 29.457031 6.222657 45.265625 18.242187 105.78125 73.769531 142.296875 105.253906 154.648437 32.28125 13.675781 69.167969 11.027344 99.164063-7.121093 16.417968 10.445312 35.527343 15.878906 54.984374 15.632812 15.128907-.058594 30.117188-2.945312 44.183594-8.511719 31.480469-12.351562 87.007813-48.867187 105.25-154.648437 17.359375-100.703125 9-174.734375-24.160156-214.097656-18.15625-21.503907-45.210938-33.4375-73.335938-32.34375zm-75.296874-39.792969c18.726562-20.394531 47.382812-27.378907 61.976562-29.699219-.964844 23.507812-9.492188 46.078125-24.308594 64.351562-3.339844 3.59375-7.03125 6.839844-11.023437 9.691407-17.585938 3.1875-34.433594 9.582031-49.710938 18.859375-.097656-1.957032-.242187-4.039063-.429687-6.226563 1.863281-20.9375 10.058594-40.8125 23.496094-56.976562zm155.976562 283.335937c-16.816406 97.535156-66.535156 130.617188-94.667969 141.660156-28.714843 12.527344-61.863281 9.347657-87.675781-8.410156-1.546875-1.136718-3.417969-1.75-5.339844-1.75-1.871094 0-3.6875.613282-5.175781 1.75-25.808594 17.761719-58.960937 20.9375-87.675781 8.410156-28.132813-11.042968-77.847656-44.125-94.664063-141.679687-1.835937-10.480469-3.367187-20.679687-4.578125-30.472656 1.472656.1875 2.957032.285156 4.441406.285156 15.566407-.019531 29.15625-10.550781 33.058594-25.617187 9.207032.191406 18.109375-3.308594 24.722656-9.714844 6.613282-6.40625 10.390626-15.195313 10.488282-24.402344 0-1.484375-.101563-2.964844-.300782-4.4375 8.71875-4.910156 14.839844-13.402344 16.746094-23.230469 1.902344-9.824219-.609375-19.988281-6.863281-27.796875 7.238281-9.046875 9.394531-21.140625 5.730469-32.132812-3.664063-10.988282-12.648438-19.367188-23.863282-22.261719.007813-.355469.015626-.714844.015626-1.074219-.003907-7.695312-2.605469-15.164062-7.390626-21.191406 9.183594-3.019531 18.800782-4.511719 28.46875-4.410156 74.285157 0 100.042969 29.238281 100.242188 29.472656l.050781.039062c1.441407 1.753907 3.527344 2.855469 5.789063 3.0625.257812.023438.527344.035157.785156.035157 1.257812-.023438 2.488281-.332031 3.609375-.898438.125-.050781.210937-.148437.328125-.203125.765625-.390625 1.464844-.890625 2.078125-1.488281.203125-.191406.488281-.269531.675781-.484375.246094-.296875 26.003906-29.535156 100.285156-29.535156 23.066407-.988282 45.304688 8.699218 60.285157 26.269531 29.820312 35.390625 36.867187 104.625 20.394531 200.207031zm0 0" fill="#000000" data-original="#000000"></path><path d="m410.085938 340.238281c-15.359376 89.054688-62.859376 120.65625-98.867188 120.65625-4.714844 0-8.535156 3.820313-8.535156 8.53125 0 4.714844 3.820312 8.535157 8.535156 8.535157 42.640625 0 98.523438-35.308594 115.683594-134.816407.730468-4.609375-2.378906-8.953125-6.976563-9.746093-4.601562-.792969-8.984375 2.253906-9.839843 6.84375zm0 0" fill="#000000" data-original="#000000"></path><path d="m102.519531 25.695312c0-4.714843-3.820312-8.535156-8.535156-8.535156-4.710937 0-8.53125 3.820313-8.53125 8.535156v8.53125c0 4.714844 3.820313 8.535157 8.53125 8.535157 4.714844 0 8.535156-3.820313 8.535156-8.535157zm0 0" fill="#000000" data-original="#000000"></path><path d="m111.050781 59.828125h8.535157c4.710937 0 8.53125-3.820313 8.53125-8.535156 0-4.710938-3.820313-8.53125-8.53125-8.53125h-8.535157c-4.710937 0-8.53125 3.820312-8.53125 8.53125 0 4.714843 3.820313 8.535156 8.53125 8.535156zm0 0" fill="#000000" data-original="#000000"></path><path d="m93.984375 85.425781c4.714844 0 8.535156-3.820312 8.535156-8.53125v-8.535156c0-4.710937-3.820312-8.53125-8.535156-8.53125-4.710937 0-8.53125 3.820313-8.53125 8.53125v8.535156c0 4.710938 3.820313 8.53125 8.53125 8.53125zm0 0" fill="#000000" data-original="#000000"></path><path d="m76.917969 42.761719h-8.535157c-4.710937 0-8.53125 3.820312-8.53125 8.53125 0 4.714843 3.820313 8.535156 8.53125 8.535156h8.535157c4.710937 0 8.535156-3.820313 8.535156-8.535156 0-4.710938-3.824219-8.53125-8.535156-8.53125zm0 0" fill="#000000" data-original="#000000"></path><path d="m460.917969 59.828125c0-4.714844-3.820313-8.535156-8.535157-8.535156-4.710937 0-8.53125 3.820312-8.53125 8.535156v8.53125c0 4.714844 3.820313 8.535156 8.53125 8.535156 4.714844 0 8.535157-3.820312 8.535157-8.535156zm0 0" fill="#000000" data-original="#000000"></path><path d="m477.984375 76.894531h-8.53125c-4.714844 0-8.535156 3.820313-8.535156 8.53125 0 4.714844 3.820312 8.535157 8.535156 8.535157h8.53125c4.714844 0 8.535156-3.820313 8.535156-8.535157 0-4.710937-3.820312-8.53125-8.535156-8.53125zm0 0" fill="#000000" data-original="#000000"></path><path d="m452.382812 119.558594c4.714844 0 8.535157-3.820313 8.535157-8.53125v-8.535156c0-4.710938-3.820313-8.53125-8.535157-8.53125-4.710937 0-8.53125 3.820312-8.53125 8.53125v8.535156c0 4.710937 3.820313 8.53125 8.53125 8.53125zm0 0" fill="#000000" data-original="#000000"></path><path d="m435.316406 76.894531h-8.53125c-4.714844 0-8.535156 3.820313-8.535156 8.53125 0 4.714844 3.820312 8.535157 8.535156 8.535157h8.53125c4.714844 0 8.535156-3.820313 8.535156-8.535157 0-4.710937-3.820312-8.53125-8.535156-8.53125zm0 0" fill="#000000" data-original="#000000"></path><path d="m34.25 196.359375c4.714844 0 8.535156-3.820313 8.535156-8.53125v-8.535156c0-4.710938-3.820312-8.53125-8.535156-8.53125-4.710938 0-8.53125 3.820312-8.53125 8.53125v8.535156c0 4.710937 3.820312 8.53125 8.53125 8.53125zm0 0" fill="#000000" data-original="#000000"></path><path d="m17.183594 196.359375h-8.53125c-4.714844 0-8.535156 3.820313-8.535156 8.535156 0 4.710938 3.820312 8.53125 8.535156 8.53125h8.53125c4.714844 0 8.535156-3.820312 8.535156-8.53125 0-4.714843-3.820312-8.535156-8.535156-8.535156zm0 0" fill="#000000" data-original="#000000"></path><path d="m59.851562 213.425781c4.710938 0 8.53125-3.820312 8.53125-8.53125 0-4.714843-3.820312-8.535156-8.53125-8.535156h-8.535156c-4.710937 0-8.53125 3.820313-8.53125 8.535156 0 4.710938 3.820313 8.53125 8.53125 8.53125zm0 0" fill="#000000" data-original="#000000"></path><path d="m34.25 213.425781c-4.710938 0-8.53125 3.820313-8.53125 8.535157v8.53125c0 4.714843 3.820312 8.535156 8.53125 8.535156 4.714844 0 8.535156-3.820313 8.535156-8.535156v-8.53125c0-4.714844-3.820312-8.535157-8.535156-8.535157zm0 0" fill="#000000" data-original="#000000"></path></g></svg>