<?xml version="1.0" encoding="UTF-8"?>
<svg width="460" height="215" version="1.1" viewBox="0 0 121.71 56.885" xmlns="http://www.w3.org/2000/svg" xmlns:xlink="http://www.w3.org/1999/xlink">
 <defs>
  <linearGradient id="linearGradient969" x1="660.07" x2="658.46" y1="6.5996" y2="108.78" gradientTransform="translate(-45.255 .35355)" gradientUnits="userSpaceOnUse">
   <stop stop-color="#c2c2c2" offset="0"/>
   <stop stop-color="#9f9f9f" offset="1"/>
  </linearGradient>
 </defs>
 <rect width="100%" height="100%" fill="#c9cdd1" />
 <g transform="matrix(.26889 0 0 .26889 -78.218 3.2598)">
  <rect transform="rotate(-16.343)" x="398.76" y="178.75" width="82.49" height="90.47" ry="8.397" fill="#9f9f9f"/>
  <g transform="rotate(16.321 538.14 -184.9)" stroke="#fff" stroke-linecap="round" stroke-linejoin="round">
   <rect x="547.19" y="1.6498" width="107.83" height="115.97" ry="4.5962" fill="url(#linearGradient969)" stroke-width="5.398"/>
   <g transform="matrix(.17265 0 0 .17265 512.49 -6.3296)" fill-rule="evenodd" shape-rendering="auto" stroke-width="13.071">
    <rect x="270" y="107.36" width="491.11" height="450" color="#000000" color-rendering="auto" fill="#ccc" image-rendering="auto" solid-color="#000000" style="isolation:auto;mix-blend-mode:normal"/>
    <rect x="270" y="107.36" width="491.11" height="210" color="#000000" color-rendering="auto" fill="#fff" image-rendering="auto" solid-color="#000000" style="isolation:auto;mix-blend-mode:normal"/>
    <path d="m300 317.36 38.461-53.538 60.531-45.161 15.883 18.574 13.613-38.684 8.2013-2.9819 13.311-28.209 180 180" color="#000000" color-rendering="auto" fill="#ccc" image-rendering="auto" solid-color="#000000" style="isolation:auto;mix-blend-mode:normal;paint-order:stroke"/>
    <path transform="translate(270 107.36)" d="m180 60c4.0931 16.475 7.7122 33.067 10.852 49.75 2.3826 12.661 4.4886 25.374 6.3164 38.127l-22.064-7.1602-46.111-29.416 5.3242 46.426-1.6152 24.787 10.053 30.377 73.186-11.756 84.061-21.135-47.801-77.434-9.6992 14.934-27.125-22.125z" color="#000000" color-rendering="auto" fill="#b3b3b3" image-rendering="auto" solid-color="#000000" style="isolation:auto;mix-blend-mode:normal;paint-order:stroke"/>
    <path d="m420 347.36 81.899-74.43 18.506-9.6801 23.651-44.189 25.944-21.701 180 180" color="#000000" color-rendering="auto" fill="#ccc" image-rendering="auto" solid-color="#000000" style="isolation:auto;mix-blend-mode:normal;paint-order:stroke"/>
    <path d="m570 197.36 35.939 80.913v30.11 30.11l22.459 19.467c6.5245-6.4503 14.149-11.785 22.444-15.705 14.824-7.0045 31.338-9.3596 47.171-13.622 6.4278-1.7304 12.907-3.8542 18.213-7.8728 1.3517-1.0236 2.6159-2.1628 3.7742-3.4011h-30l-40.521-40.55-29.856-48.92-10.253 8.8389z" color="#000000" color-rendering="auto" fill="#b3b3b3" image-rendering="auto" solid-color="#000000" style="isolation:auto;mix-blend-mode:normal;paint-order:stroke"/>
    <path d="m420 557.36c-0.41699-9.6009-8.8176-17.609 17.125-30.668 31.832-16.024 125.9-35.888 152.15-59.984 19.427-17.827-70.415-37.669-55.019-59.073 6.981-9.7053 59.037-19.969 82.146-30.274 21.906-9.768 15.141-19.803 31.405-29.975 15.709-9.8256 68.35-19.774 72.189-30.025-10.414 10.522-68.834 20.403-90 30-22.338 10.128-21.469 19.93-49.431 29.484-30.124 10.292-89.142 20.553-102.71 30.516-28.413 20.869 46.863 42.6 16.202 60-41.52 23.563-149.34 43.294-194.06 60-30.904 11.544-28.408 17.748-30 30" color="#000000" color-rendering="auto" fill="#fff" image-rendering="auto" solid-color="#000000" style="isolation:auto;mix-blend-mode:normal;paint-order:stroke"/>
   </g>
  </g>
 </g>
 <g transform="translate(.52917)">
  <path d="m20.703 46.621c-0.92222 0-1.6453 0.26874-2.1694 0.80564-0.52404 0.53432-0.786 1.2627-0.786 2.1849 0 0.91451 0.26195 1.6413 0.786 2.1807 0.52404 0.53689 1.2472 0.80564 2.1694 0.80564 0.92478 0 1.6495-0.26874 2.1735-0.80564 0.52404-0.53946 0.786-1.2662 0.786-2.1807 0-0.92222-0.26352-1.6506-0.79013-2.1849-0.52661-0.53689-1.2497-0.80564-2.1694-0.80564zm27.539 0.0078c-0.99671 0-1.7737 0.27397-2.3311 0.82114-0.55744 0.5446-0.83613 1.2625-0.83613 2.1539 0 0.93506 0.27607 1.6686 0.82837 2.2004 0.5523 0.52918 1.3162 0.79375 2.2924 0.79375 0.42129 0 0.84428-0.04914 1.2681-0.14676 0.42386-0.10018 0.76424-0.20005 1.0211-0.30024v-2.8324h-2.6474v1.0826h1.1446v1.1255c-0.05651 0.0051-0.11978 0.0088-0.18914 0.01138-0.06679 0.0026-0.12849 0.0036-0.185 0.0036-0.65762 0-1.1543-0.16784-1.4909-0.50436-0.33652-0.33652-0.50488-0.82225-0.50488-1.4568 0-0.31083 0.04601-0.58429 0.13849-0.82062 0.09505-0.2389 0.22367-0.4355 0.38551-0.58963 0.16954-0.15927 0.36091-0.27744 0.57412-0.3545 0.21321-0.07706 0.4506-0.11576 0.71262-0.11576 0.22349 0 0.4342 0.0298 0.632 0.08888 0.20037 0.05909 0.375 0.12967 0.524 0.21187 0.12844 0.06936 0.26229 0.15406 0.40101 0.25425 0.13872 0.09762 0.24382 0.17343 0.31574 0.22738h0.16588v-1.3446c-0.41872-0.20294-0.79884-0.33784-1.1405-0.40462-0.34166-0.06936-0.70138-0.10439-1.079-0.10439zm-36.849 0.11214v5.7371h1.3565v-3.9377l2.435 3.9377h1.4258v-5.7371h-1.3565v3.2866l-2.0919-3.2866zm15.833 0v1.017h0.93999v3.7031h-0.93999v1.017h3.36v-1.017h-0.94v-3.7031h0.94v-1.017zm4.5739 0v5.7371h1.3947v-3.8416l1.0635 2.4934h1.0211l1.0635-2.4934v3.8416h1.4723v-5.7371h-1.7188l-1.2873 2.8784-1.2909-2.8784zm8.955 0-2.1193 5.7371h1.4909l0.39688-1.1596h2.127l0.39688 1.1596h1.5301l-2.1193-5.7371zm11.051 0v5.7371h4.1501v-1.1095h-2.6779v-1.418h2.4851v-1.11h-2.4851v-0.99012h2.6779v-1.1095zm9.9736 0-2.1193 5.7371h1.4914l0.39688-1.1596h2.127l0.39688 1.1596h1.5296l-2.1193-5.7371zm4.0153 0 2.0924 5.7371h1.6567l2.0924-5.7371h-1.5146l-1.387 4.0302-1.387-4.0302zm8.1458 0-2.1193 5.7371h1.4909l0.39688-1.1596h2.127l0.39688 1.1596h1.5301l-2.1193-5.7371zm4.3966 0v1.017h0.93999v3.7031h-0.93999v1.017h3.36v-1.017h-0.94051v-3.7031h0.94051v-1.017zm4.5739 0v5.7371h4.1382v-1.1095h-2.6588v-4.6276zm6.504 0-2.1193 5.7371h1.4914l0.39688-1.1596h2.127l0.39688 1.1596h1.5296l-2.1192-5.7371zm4.655 0v5.7371h2.5042c0.41616 0 0.75915-0.03556 1.0289-0.10749 0.2723-0.07193 0.5217-0.19271 0.74776-0.36225 0.19523-0.14386 0.34791-0.32528 0.45837-0.54364 0.11303-0.21835 0.1695-0.46619 0.1695-0.74362 0-0.38276-0.11032-0.69073-0.33124-0.92449-0.21835-0.23376-0.51482-0.38801-0.88987-0.4625v-0.031c0.26716-0.11817 0.47369-0.28235 0.62012-0.49299 0.14642-0.21321 0.21962-0.45844 0.21962-0.73587 0-0.2389-0.05386-0.45118-0.16175-0.63614-0.10532-0.18753-0.26741-0.33654-0.48576-0.447-0.21064-0.10532-0.42346-0.1733-0.63924-0.20412-0.21321-0.03083-0.55098-0.04599-1.0134-0.04599zm6.011 0v5.7371h4.1382v-1.1095h-2.6588v-4.6276zm5.0245 0v5.7371h4.1501v-1.1095h-2.6779v-1.418h2.4851v-1.11h-2.4851v-0.99012h2.6779v-1.1095zm-84.4 0.96325c0.18496 0 0.36221 0.03451 0.53175 0.10387 0.17211 0.06936 0.32374 0.18125 0.45475 0.33538 0.12844 0.149 0.23249 0.34402 0.31213 0.5855 0.07964 0.24147 0.11937 0.53427 0.11937 0.8785 0 0.32111-0.03451 0.60136-0.10387 0.84026-0.06936 0.23633-0.17602 0.44182-0.31988 0.6165-0.12844 0.15413-0.27851 0.26863-0.45062 0.34313-0.17211 0.07193-0.35354 0.10749-0.54364 0.10749-0.1901 0-0.37101-0.03556-0.54312-0.10749-0.17211-0.07193-0.32218-0.18382-0.45062-0.33538-0.12844-0.15156-0.23249-0.34711-0.31213-0.58601-0.07707-0.24147-0.11576-0.53271-0.11576-0.87437 0-0.33395 0.03974-0.62675 0.11937-0.8785 0.0822-0.25432 0.18782-0.45352 0.31626-0.59738 0.13872-0.15413 0.28983-0.26446 0.45424-0.33125 0.16698-0.06679 0.34422-0.10025 0.53175-0.10025zm74.836 0.08837h0.13901c0.29028 0 0.51459 0.0026 0.67386 0.0078 0.16184 0.0026 0.29674 0.02453 0.40463 0.06563 0.12074 0.04624 0.20439 0.11682 0.25063 0.21187 0.04881 0.09505 0.07338 0.19021 0.07338 0.28525 0 0.12331-0.0209 0.23258-0.06201 0.32763-0.0411 0.09248-0.12842 0.16829-0.262 0.22738-0.09505 0.04367-0.22472 0.06929-0.38912 0.077-0.16441 0.0077-0.3631 0.01138-0.59686 0.01138h-0.23151zm-53.955 0.41651 0.70538 2.0572h-1.4102zm21.025 0 0.70487 2.0572h-1.4103zm12.16 0 0.70538 2.0572h-1.4102zm15.475 0 0.70487 2.0572h-1.4102zm5.2943 1.7875h0.32349c0.22092 0 0.4332 0.0016 0.63614 0.0041 0.20294 0.0026 0.36189 0.02035 0.47749 0.05374 0.16954 0.04881 0.28928 0.12357 0.35864 0.22376 0.07193 0.09762 0.108 0.23774 0.108 0.42013 0 0.13872-0.0298 0.2616-0.08888 0.36949-0.05651 0.10532-0.16161 0.19003-0.31574 0.25425-0.15156 0.06422-0.31731 0.09768-0.49713 0.10025-0.17982 0.0026-0.47785 0.0041-0.894 0.0041h-0.108z" fill="#767676"/>
 </g>
</svg>
